<svg xmlns="http://www.w3.org/2000/svg" width="800" height="800" viewBox="0 0 800 800">
  <rect width="100%" height="100%" fill="#FAF9F6"/>
  <!-- Minimalist Line Art of T-Shirt -->
  <path d="M 400,240 C 370,240 350,225 340,210 L 250,245 L 285,320 L 340,300 L 340,580 C 340,590 350,600 360,600 L 440,600 C 450,600 460,590 460,580 L 460,300 L 515,320 L 550,245 L 460,210 C 450,225 430,240 400,240 Z" 
        fill="none" 
        stroke="#B45309" 
        stroke-width="8" 
        stroke-linejoin="round" 
        stroke-linecap="round"/>
  <!-- Collar details -->
  <path d="M 340,210 C 360,222 440,222 460,210" 
        fill="none" 
        stroke="#B45309" 
        stroke-width="8" 
        stroke-linecap="round"/>
  <!-- Sleeve folds -->
  <path d="M 288,275 L 340,250" 
        fill="none" 
        stroke="#B45309" 
        stroke-width="6" 
        stroke-linecap="round"/>
  <path d="M 512,275 L 460,250" 
        fill="none" 
        stroke="#B45309" 
        stroke-width="6" 
        stroke-linecap="round"/>
</svg>
